X Lossless Decoder version 20151214 (149.1)

XLD extraction logfile from 2016-04-05 01:52:08 +0900

やくしまるえつこ / ルル

Used drive : HL-DT-ST BD-RE  BH10NS30 (revision EL00)
Media type : Pressed CD

Ripper mode             : XLD Secure Ripper
Disable audio cache     : OK for the drive with a cache less than 1375KiB
Make use of C2 pointers : NO
Read offset correction  : 667
Max retry count         : 20
Gap status              : Analyzed, Appended

TOC of the extracted CD
     Track |   Start  |  Length  | Start sector | End sector 
    ---------------------------------------------------------
        1  | 00:00:00 | 03:31:63 |         0    |    15887   
        2  | 03:31:63 | 05:58:47 |     15888    |    42784   
        3  | 09:30:35 | 03:31:64 |     42785    |    58673   
        4  | 13:02:24 | 05:58:47 |     58674    |    85570   
        5  | 19:00:71 | 01:35:04 |     85571    |    92699   
        6  | 20:36:00 | 01:09:34 |     92700    |    97908   

AccurateRip Summary (DiscID: 00060137-001f7f76-3f051906)
    Track 01 : OK (v1+v2, confidence 22/22)
    Track 02 : OK (v1+v2, confidence 22/22)
    Track 03 : OK (v1+v2, confidence 18/18)
    Track 04 : OK (v1+v2, confidence 18/18)
    Track 05 : OK (v1+v2, confidence 20/20)
    Track 06 : OK (v1+v2, confidence 21/21)
        ->All tracks accurately ripped.

All Tracks
    Filename : /Volumes/MyBook4TB1230/tmp/やくしまるえつこ - ルル.flac
    CRC32 hash               : 5B3E3A00
    CRC32 hash (skip zero)   : E8401D47
    Statistics
        Read error                           : 0
        Jitter error (maybe fixed)           : 0
        Retry sector count                   : 0
        Damaged sector count                 : 0

Track 01
    Pre-gap length : 00:02:00

    CRC32 hash               : C363F9FF
    CRC32 hash (skip zero)   : 454A29CE
    AccurateRip v1 signature : 04A7C4BB
    AccurateRip v2 signature : 04DB806B
        ->Accurately ripped (v1+v2, confidence 10+12/22)
    Statistics
        Read error                           : 0
        Jitter error (maybe fixed)           : 0
        Retry sector count                   : 0
        Damaged sector count                 : 0

Track 02
    Pre-gap length : 00:02:36

    CRC32 hash               : 9AB6D4FE
    CRC32 hash (skip zero)   : A4A4AB0C
    AccurateRip v1 signature : 5DC0517D
    AccurateRip v2 signature : 9DA72AEB
        ->Accurately ripped (v1+v2, confidence 10+12/22)
    Statistics
        Read error                           : 0
        Jitter error (maybe fixed)           : 0
        Retry sector count                   : 0
        Damaged sector count                 : 0

Track 03
    Pre-gap length : 00:03:36

    CRC32 hash               : 0C65F40F
    CRC32 hash (skip zero)   : 4708FE0F
    AccurateRip v1 signature : 05115882
    AccurateRip v2 signature : 08C0DD96
        ->Accurately ripped (v1+v2, confidence 8+10/18)
    Statistics
        Read error                           : 0
        Jitter error (maybe fixed)           : 0
        Retry sector count                   : 0
        Damaged sector count                 : 0

Track 04
    Pre-gap length : 00:02:36

    CRC32 hash               : CAB8665F
    CRC32 hash (skip zero)   : C2FF4212
    AccurateRip v1 signature : AFD8663F
    AccurateRip v2 signature : D71E9785
        ->Accurately ripped (v1+v2, confidence 8+10/18)
    Statistics
        Read error                           : 0
        Jitter error (maybe fixed)           : 0
        Retry sector count                   : 0
        Damaged sector count                 : 0

Track 05
    Pre-gap length : 00:03:36

    CRC32 hash               : 550361A2
    CRC32 hash (skip zero)   : 542DF939
    AccurateRip v1 signature : DF419185
    AccurateRip v2 signature : 480BCB89
        ->Accurately ripped (v1+v2, confidence 9+11/20)
    Statistics
        Read error                           : 0
        Jitter error (maybe fixed)           : 0
        Retry sector count                   : 0
        Damaged sector count                 : 0

Track 06
    Pre-gap length : 00:04:36

    CRC32 hash               : 5FA4DD20
    CRC32 hash (skip zero)   : F34CF134
    AccurateRip v1 signature : D9310BD0
    AccurateRip v2 signature : F063D5B4
        ->Accurately ripped (v1+v2, confidence 10+11/21)
    Statistics
        Read error                           : 0
        Jitter error (maybe fixed)           : 0
        Retry sector count                   : 0
        Damaged sector count                 : 0

No errors occurred

End of status report
